<svg width="146" height="38" viewBox="0 0 146 38" fill="none" xmlns="http://www.w3.org/2000/svg">
<g clip-path="url(#clip0_0_179)">
<path d="M4.23889 7.91812V37.2299H0V0.80127H4.23889L25.3122 29.8718V0.80127H29.5511V37.2299H25.3122L4.23889 7.91812Z" fill="black"/>
<path d="M62.13 25.1678H38.0289C38.6344 30.5959 42.6311 34.2146 48.0811 34.2146C51.1694 34.2146 53.8944 33.1893 55.7111 30.8974H60.3739C58.3756 35.1796 53.5917 37.773 48.0811 37.773C39.785 37.773 33.9111 31.9831 33.9111 23.66C33.9111 15.3369 39.785 9.54688 48.0811 9.54688C56.3772 9.54688 62.2511 15.3972 62.2511 23.66C62.2511 24.1425 62.1906 24.625 62.13 25.1678ZM38.0894 21.6697H57.9517C57.1644 16.4828 53.3494 13.1053 48.0811 13.1053C42.8128 13.1053 38.8767 16.4828 38.0894 21.6697Z" fill="black"/>
<path d="M66.4294 10.0293H70.5472V26.3136C70.5472 30.8974 73.2722 34.0336 77.8744 34.0336C82.4767 34.0336 85.2017 30.8974 85.2017 26.3136V10.0293H89.2589V37.2302H85.2017V33.9733C83.385 36.4461 80.4783 37.8936 77.39 37.773C70.7289 37.773 66.49 33.0686 66.49 26.3136L66.4294 10.0293Z" fill="black"/>
<path d="M95.1933 10.0296H99.3111V13.8293L108.818 9.72803V13.9499L99.3111 17.8702V37.2305H95.1933V10.0296Z" fill="black"/>
<path d="M111.483 23.7205C111.483 15.4577 117.357 9.60742 125.653 9.60742C133.949 9.60742 139.823 15.518 139.823 23.7205C139.823 31.923 133.949 37.8336 125.653 37.8336C117.357 37.8336 111.483 32.0436 111.483 23.7205ZM135.705 23.7205C135.705 17.5083 131.587 13.2262 125.653 13.2262C119.718 13.2262 115.479 17.5083 115.479 23.7205C115.479 29.9327 119.718 34.1545 125.653 34.1545C131.587 34.1545 135.705 29.9327 135.705 23.7205Z" fill="black"/>
<path d="M141.458 8.21998C139.338 8.21998 137.582 6.47092 137.582 4.35999C137.582 2.24906 139.338 0.5 141.458 0.5C143.577 0.5 145.333 2.24906 145.333 4.35999C145.333 6.47092 143.577 8.21998 141.458 8.21998ZM141.458 1.28406C139.762 1.28406 138.369 2.67124 138.369 4.35999C138.369 6.04873 139.762 7.43592 141.458 7.43592C143.153 7.43592 144.546 6.04873 144.546 4.35999C144.546 2.67124 143.153 1.28406 141.458 1.28406Z" fill="black"/>
<path d="M141.337 4.78233H140.973V6.22983H140.186V2.36984H141.7C142.366 2.30952 142.911 2.79202 142.972 3.45546C142.972 3.51577 142.972 3.51577 142.972 3.57608C142.972 4.11889 142.669 4.54108 142.124 4.6617L142.972 6.22983H142.124L141.337 4.78233ZM141.579 4.11889C141.942 4.11889 142.184 3.87764 142.184 3.57608C142.184 3.27452 141.942 3.03327 141.579 3.03327H140.973V4.11889H141.579Z" fill="black"/>
</g>
<defs>
<clipPath id="clip0_0_179">
<rect width="145.333" height="37.3333" fill="white" transform="translate(0 0.5)"/>
</clipPath>
</defs>
</svg>
